HIERARCHY
ROOT Hips
{
	OFFSET 0.00000 0.00000 0.00000
	CHANNELS 6 Xposition Yposition Zposition Zrotation Yrotation Xrotation 
	JOINT LHipJoint
	{
		OFFSET 0 0 0
		CHANNELS 3 Zrotation Yrotation Xrotation
		JOINT LeftHip
		{
			OFFSET 1.34019 -1.87553 0.90315
			CHANNELS 3 Zrotation Yrotation Xrotation
			JOINT LeftKnee
			{
				OFFSET 2.55316 -7.01474 0.00000
				CHANNELS 3 Zrotation Yrotation Xrotation
				JOINT LeftAnkle
				{
					OFFSET 2.64657 -7.27139 0.00000
					CHANNELS 3 Zrotation Yrotation Xrotation
					JOINT LeftToe
					{
						OFFSET 0.24207 -0.66507 2.14489
						CHANNELS 3 Zrotation Yrotation Xrotation
						End Site
						{
							OFFSET 0.00000 -0.00000 1.12451
						}
					}
				}
			}
		}
	}
	JOINT RHipJoint
	{
		OFFSET 0 0 0
		CHANNELS 3 Zrotation Yrotation Xrotation
		JOINT RightHip
		{
			OFFSET -1.28320 -1.87553 0.90315
			CHANNELS 3 Zrotation Yrotation Xrotation
			JOINT RightKnee
			{
				OFFSET -2.60484 -7.15674 0.00000
				CHANNELS 3 Zrotation Yrotation Xrotation
				JOINT RightAnkle
				{
					OFFSET -2.60296 -7.15159 0.00000
					CHANNELS 3 Zrotation Yrotation Xrotation
					JOINT RightToe
					{
						OFFSET -0.31082 -0.85398 2.28998
						CHANNELS 3 Zrotation Yrotation Xrotation
						End Site
						{
							OFFSET -0.00000 -0.00000 1.21611
						}
					}
				}
			}
		}
	}
	JOINT lowerback
	{
		OFFSET 0 0 0
		CHANNELS 3 Zrotation Yrotation Xrotation
		JOINT Chest
		{
			OFFSET -0.00160 2.05581 -0.15156
			CHANNELS 3 Zrotation Yrotation Xrotation
			JOINT Chest2
			{
				OFFSET 0.04594 2.06326 -0.01617
				CHANNELS 3 Zrotation Yrotation Xrotation
				JOINT lowerneck
				{
					OFFSET 0 0 0
					CHANNELS 3 Zrotation Yrotation Xrotation
					JOINT Neck
					{
						OFFSET 0.03753 1.73883 0.26751
						CHANNELS 3 Zrotation Yrotation Xrotation
						JOINT Head
						{
							OFFSET -0.09795 1.76129 -0.31794
							CHANNELS 3 Zrotation Yrotation Xrotation
							End Site
							{
								OFFSET -0.03611 1.79987 -0.13846
							}
						}
					}
				}
				JOINT LeftCollar
				{
					OFFSET 0 0 0
					CHANNELS 3 Zrotation Yrotation Xrotation
					JOINT LeftShoulder
					{
						OFFSET 3.30667 1.29205 -0.22445
CHANNELS 3 Zrotation Xrotation Yrotation
						JOINT LeftElbow
						{
OFFSET 0 -4.927850 -0.000000
CHANNELS 3 Zrotation Xrotation Yrotation
							JOINT LeftWrist
							{
OFFSET 0 -3.440520 0.000000
CHANNELS 3 Zrotation Xrotation Yrotation
								JOINT lhand
								{
									OFFSET 0 0 0
CHANNELS 3 Zrotation Xrotation Yrotation
									JOINT LFingers
									{
OFFSET 0 -0.654330 0.000000
CHANNELS 3 Zrotation Xrotation Yrotation
										End Site
										{
OFFSET 0 -0.527530 0.000000
										}
									}
								}
								JOINT LThumb
								{
OFFSET 0 0.000000 0.000000
CHANNELS 3 Zrotation Xrotation Yrotation
									End Site
									{
OFFSET 0 -0.535590 0.535590
									}
								}
							}
						}
					}
				}
				JOINT RightCollar
				{
					OFFSET 0 0 0
					CHANNELS 3 Zrotation Yrotation Xrotation
					JOINT RightShoulder
					{
						OFFSET -3.20032 1.49783 -0.27688
CHANNELS 3 Zrotation Xrotation Yrotation
						JOINT RightElbow
						{
OFFSET 0 -5.091810 -0.000000
CHANNELS 3 Zrotation Xrotation Yrotation
							JOINT RightWrist
							{
OFFSET 0 -3.498650 -0.000000
CHANNELS 3 Zrotation Xrotation Yrotation
								JOINT rhand
								{
									OFFSET 0 0 0
CHANNELS 3 Zrotation Xrotation Yrotation
									JOINT RFingers
									{
OFFSET 0 -0.666410 0.000000
CHANNELS 3 Zrotation Xrotation Yrotation
										End Site
										{
OFFSET 0 -0.537280 0.000000
										}
									}
								}
								JOINT RThumb
								{
OFFSET 0 0.000000 0.000000
CHANNELS 3 Zrotation Xrotation Yrotation
									End Site
									{
OFFSET 0 -0.545480 0.545480
									}
								}
							}
						}
					}
				}
			}
		}
	}
}
MOTION
Frames: 11
Frame Time: 0.008333333333333333
-0.053200 17.860200 -31.576200 -0.982600 1.140500 2.926800 0.000000 0.000000 0.000000 -11.958000 -15.440900 -1.748100 1.195000 6.936300 19.526800 0.352800 -11.250900 -12.335800 0.189700 -2.804700 -7.735600 0.000000 0.000000 0.000000 14.066800 22.713000 -1.197800 -1.825000 -8.491600 24.217300 -0.753900 9.741700 -15.923300 -0.099700 2.036200 -5.605700 -1.876600 -0.677500 2.831500 2.900600 -0.876900 -3.127900 4.127100 -0.314800 -4.753500 5.468800 -1.734300 -23.442300 -8.088200 -1.966000 31.067500 -4.659900 -1.382800 14.464300 -0.000000 0.000000 0.000000 4.376300 10.384500 -25.428300 17.780400 -27.875100 4.446100 7.224200 -3.338400 -0.322000 0.000000 0.000000 0.000000 -7.125000 0.000000 0.000000 -15.156700 30.107500 -5.688800 -0.000000 0.000000 0.000000 -5.636300 3.852600 12.694200 -12.988800 -21.270900 -2.449200 -17.409600 2.049300 3.436500 0.000000 0.000000 0.000000 7.125000 0.000000 -0.000000 7.515000 33.511500 2.132400
-0.022625 17.844837 -31.541194 -0.938209 1.987886 2.243586 0.000000 0.000000 0.000000 -12.393293 -16.192895 -0.782207 1.226392 7.023608 19.785311 0.398751 -11.076159 -12.763438 0.227376 -3.068972 -8.470874 0.000000 0.000000 0.000000 14.265286 21.833804 -0.206798 -1.796279 -8.428193 24.022253 -0.777357 9.563016 -16.106376 -0.105586 2.095018 -5.768283 -1.430534 -1.084492 3.094221 2.725426 -1.407858 -3.028897 3.731310 -0.598821 -4.766887 5.371130 -1.872529 -23.525514 -8.004021 -2.160060 31.352641 -4.663840 -1.462489 14.594193 0.000000 0.000000 0.000000 4.595896 10.700562 -25.679784 17.441113 -27.435597 4.288596 6.904781 -2.892531 -0.163105 0.000000 0.000000 0.000000 -7.125000 0.000000 0.000000 -15.377323 29.945947 -5.838879 0.000000 0.000000 0.000000 -5.549295 4.043269 12.123790 -12.903583 -21.145768 -2.418428 -17.444304 2.344293 3.606456 0.000000 0.000000 0.000000 7.125000 0.000000 0.000000 7.504988 33.689158 2.096934
-0.022763 17.832586 -31.529611 -0.961882 1.581456 2.253167 0.000000 0.000000 0.000000 -12.330979 -15.460876 -0.735450 1.206275 6.968026 19.620605 0.417039 -11.154824 -12.988177 0.295960 -3.498234 -9.669158 0.000000 0.000000 0.000000 14.346180 22.308211 -0.328903 -1.867345 -8.584075 24.502554 -0.798892 9.505703 -16.294884 -0.106839 2.107589 -5.803161 -1.663704 -0.984587 2.958777 2.794412 -1.281471 -3.172697 3.926371 -0.523444 -4.843978 5.339044 -1.981096 -23.474829 -8.095883 -2.269288 31.575211 -4.729403 -1.523444 14.671086 0.000000 0.000000 0.000000 4.458149 11.121759 -25.927091 16.994849 -26.851019 4.085011 6.793117 -2.059021 0.455783 0.000000 0.000000 0.000000 -7.125000 0.000000 0.000000 -15.368840 29.342606 -6.065163 0.000000 0.000000 0.000000 -5.698438 4.396533 11.689274 -12.848039 -21.064138 -2.398374 -17.401998 2.280324 3.527553 0.000000 0.000000 0.000000 7.125000 0.000000 0.000000 7.530866 33.605734 2.119593
-0.005688 17.836717 -31.526334 -0.853548 1.712074 2.179643 0.000000 0.000000 0.000000 -12.536377 -15.663403 -0.581781 1.202399 6.957013 19.588198 0.402720 -11.301866 -12.893268 0.264216 -3.307019 -9.134616 0.000000 0.000000 0.000000 14.239894 22.156644 -0.212785 -1.862909 -8.574435 24.472992 -0.808571 9.314310 -16.349303 -0.110100 2.139458 -5.891205 -1.633107 -1.133875 2.886732 2.706049 -1.482978 -3.203792 3.828764 -0.626628 -4.821959 5.428899 -1.968847 -23.388643 -8.155009 -2.267661 31.472321 -4.759558 -1.522571 14.602873 0.000000 0.000000 0.000000 4.421983 11.434862 -26.186927 16.643422 -26.385296 3.927599 6.644265 -1.608772 0.537519 0.000000 0.000000 0.000000 -7.125000 0.000000 0.000000 -15.469840 29.260570 -6.139255 0.000000 0.000000 0.000000 -5.628851 4.334383 11.200903 -12.655397 -20.780269 -2.329598 -17.466341 2.696801 3.527439 0.000000 0.000000 0.000000 7.125000 0.000000 0.000000 7.478687 33.607893 2.104347
-0.025385 17.843323 -31.540835 -0.914115 1.095046 2.607332 0.000000 0.000000 0.000000 -12.204425 -15.063833 -1.178246 1.189329 6.920470 19.480065 0.391633 -11.497722 -12.854057 0.257251 -3.263293 -9.012727 0.000000 0.000000 0.000000 14.155500 22.720438 -0.851212 -1.887857 -8.628458 24.639835 -0.789164 9.526379 -16.208878 -0.106649 2.105850 -5.798339 -1.780626 -1.136514 2.442861 2.714161 -1.490203 -3.339015 3.911271 -0.625479 -4.706334 5.619217 -1.788937 -23.456296 -8.276612 -2.042486 31.443354 -4.804870 -1.422312 14.622194 0.000000 0.000000 0.000000 4.591581 11.666143 -26.618055 16.609562 -26.340182 3.912542 6.347904 -1.995286 -0.336438 0.000000 0.000000 0.000000 -7.125000 0.000000 0.000000 -15.831237 30.101344 -5.962309 0.000000 0.000000 0.000000 -5.450012 4.217905 11.509113 -12.595879 -20.692219 -2.308523 -17.347617 2.810524 3.421589 0.000000 0.000000 0.000000 7.125000 0.000000 0.000000 7.563714 33.493828 2.149647
-0.031362 17.842946 -31.552869 -1.327794 1.355956 2.488021 0.000000 0.000000 0.000000 -11.728152 -15.558151 -1.244761 1.237646 7.054485 19.876956 0.402599 -11.526025 -12.980940 0.222515 -3.036369 -8.379907 0.000000 0.000000 0.000000 14.753073 22.717477 -0.603208 -1.860692 -8.569684 24.458168 -0.790038 9.175118 -16.154111 -0.107939 2.118486 -5.833226 -1.436525 -1.278936 2.671012 2.808941 -1.659965 -3.389956 3.834803 -0.716729 -4.882335 5.578996 -1.818162 -23.548074 -8.248949 -2.080439 31.616043 -4.808174 -1.437431 14.717790 0.000000 0.000000 0.000000 4.876884 11.766176 -27.294018 16.618773 -26.352402 3.916606 6.236089 -2.121543 -0.100976 0.000000 0.000000 0.000000 -7.125000 0.000000 0.000000 -15.879371 29.870908 -6.072834 0.000000 0.000000 0.000000 -5.335411 4.322020 11.736993 -12.615160 -20.720768 -2.315330 -17.242823 2.658842 3.214607 0.000000 0.000000 0.000000 7.125000 0.000000 0.000000 7.626685 33.275522 2.208431
-0.056299 17.848808 -31.563825 -1.088454 0.051946 2.990863 0.000000 0.000000 0.000000 -11.750550 -14.308225 -1.634848 1.168902 6.862890 19.309780 0.400307 -11.433485 -12.919718 0.246251 -3.193096 -8.816703 0.000000 0.000000 0.000000 14.274365 23.654434 -1.479656 -1.930240 -8.719288 24.921099 -0.767170 9.778438 -16.054328 -0.103117 2.071169 -5.702355 -2.249155 -0.729269 2.029156 2.791406 -0.958709 -3.466215 4.218353 -0.342216 -4.640012 5.393049 -2.128781 -23.700450 -8.190976 -2.486260 31.883332 -4.847520 -1.621519 14.836034 0.000000 0.000000 0.000000 5.231116 11.478734 -28.005854 16.719985 -26.487194 3.961684 6.312422 -2.375444 -0.064418 0.000000 0.000000 0.000000 -7.125000 0.000000 0.000000 -15.815191 29.837152 -6.059783 0.000000 0.000000 0.000000 -5.295263 4.444838 11.793995 -12.720665 -20.876543 -2.352838 -17.261419 2.454899 3.398984 0.000000 0.000000 0.000000 7.125000 0.000000 0.000000 7.631109 33.467327 2.174037
-0.045206 17.842995 -31.559011 -0.870823 -0.019997 2.622106 0.000000 0.000000 0.000000 -12.166765 -14.277889 -1.101204 1.157547 6.830731 19.214883 0.406318 -11.330086 -12.942727 0.233164 -3.107957 -8.579324 0.000000 0.000000 0.000000 14.194696 23.599961 -1.018184 -1.937973 -8.735543 24.971524 -0.780073 9.705384 -16.159469 -0.108102 2.120115 -5.837742 -2.144054 -0.891814 2.072754 2.658705 -1.178174 -3.406113 4.032200 -0.459836 -4.585992 5.622071 -1.859928 -23.613244 -8.471803 -2.072922 32.096797 -4.945135 -1.454059 14.947604 0.000000 0.000000 0.000000 5.359427 11.571038 -27.810521 16.818479 -26.617870 4.005725 6.304995 -2.584931 0.292279 0.000000 0.000000 0.000000 -7.125000 0.000000 0.000000 -15.765276 29.491727 -6.174619 0.000000 0.000000 0.000000 -5.394907 4.420437 12.033396 -12.596022 -20.692483 -2.308573 -17.413005 2.854691 3.598148 0.000000 0.000000 0.000000 7.125000 0.000000 0.000000 7.529545 33.679427 2.105680
-0.020981 17.837704 -31.552559 -0.844990 0.696132 2.305254 0.000000 0.000000 0.000000 -12.395841 -14.968420 -0.728293 1.178499 6.889941 19.389702 0.408558 -11.341200 -12.970775 0.218042 -3.006052 -8.295482 0.000000 0.000000 0.000000 14.287868 23.122617 -0.460452 -1.908814 -8.673452 24.779033 -0.805284 9.307395 -16.318061 -0.107989 2.119169 -5.835072 -1.854394 -1.076264 2.169053 2.584901 -1.415592 -3.425814 3.807691 -0.588267 -4.648361 5.569201 -1.940469 -23.576613 -8.407409 -2.188098 32.288706 -4.941431 -1.496295 15.017447 0.000000 0.000000 0.000000 5.453984 11.697815 -28.201522 16.973389 -26.822637 4.075294 6.362415 -2.618985 -0.104740 0.000000 0.000000 0.000000 -7.125000 0.000000 0.000000 -15.783340 29.877386 -6.030897 0.000000 0.000000 0.000000 -5.537044 4.554250 11.400885 -12.442446 -20.464903 -2.254593 -17.235145 3.391039 3.205444 0.000000 0.000000 0.000000 7.125000 0.000000 0.000000 7.631872 33.265715 2.211820
-0.039141 17.851351 -31.562273 -0.896681 0.085747 3.025605 0.000000 0.000000 0.000000 -11.982357 -14.137682 -1.729058 1.160624 6.839546 19.240825 0.379716 -11.739164 -12.826980 0.214176 -2.979735 -8.222228 0.000000 0.000000 0.000000 14.066122 23.765779 -1.416717 -1.936291 -8.732133 24.961025 -0.784282 9.432020 -16.145937 -0.110112 2.139837 -5.892311 -2.129702 -0.804470 1.423293 2.632373 -1.052223 -3.712561 3.980915 -0.394655 -4.547897 5.452254 -2.078337 -23.668776 -8.152914 -2.441121 32.341310 -4.864995 -1.580267 15.043410 0.000000 0.000000 0.000000 5.574173 11.691969 -28.400838 16.932929 -26.769264 4.057034 6.719548 -2.566529 0.664565 0.000000 0.000000 0.000000 -7.125000 0.000000 0.000000 -15.393658 29.138513 -6.153441 0.000000 0.000000 0.000000 -5.573769 4.682645 11.129857 -12.305484 -20.261246 -2.206928 -17.398235 3.477213 3.164638 0.000000 0.000000 0.000000 7.125000 0.000000 0.000000 7.495792 33.228714 2.178522
0.029260 17.879320 -31.549262 -0.692658 2.312566 4.163508 0.000000 0.000000 0.000000 -12.164671 -16.827581 -2.863436 1.200978 6.953067 19.576402 0.372771 -11.460056 -12.637628 0.218292 -3.007776 -8.300335 0.000000 0.000000 0.000000 13.032223 21.902121 -2.710141 -1.839992 -8.524525 24.318906 -0.774308 9.303554 -16.029841 -0.110946 2.147757 -5.914089 -1.227624 -1.533504 -0.065676 2.388521 -1.995099 -4.136407 3.223596 -0.904861 -4.099621 5.627673 -1.968274 -23.717493 -8.219741 -2.329505 32.303521 -4.903052 -1.521197 15.043655 0.000000 0.000000 0.000000 5.697573 11.727128 -28.512553 16.933428 -26.769967 4.057302 6.447907 -2.822330 0.253522 0.000000 0.000000 0.000000 -7.125000 0.000000 0.000000 -15.662412 29.532108 -6.115751 0.000000 0.000000 0.000000 -5.592550 4.659994 11.113125 -12.082146 -19.927734 -2.130195 -17.279384 3.911510 3.094693 0.000000 0.000000 0.000000 7.125000 0.000000 0.000000 7.584548 33.152273 2.218857
